 <svg  version="1.0" xmlns="http://www.w3.org/2000/svg"  width="900.000000pt" height="900.000000pt" viewBox="0 0 900.000000 900.000000"  preserveAspectRatio="xMidYMid meet">  <g transform="translate(0.000000,900.000000) scale(0.100000,-0.100000)" fill="#ffffff" stroke="none"> <path d="M3082 6413 c-192 -4 -205 -6 -254 -55 -42 -42 -26 -104 32 -123 41 -14 42 -28 3 -36 -60 -12 -143 -63 -210 -128 -23 -22 -11 -44 26 -49 69 -7 86 -70 57 -202 -8 -36 -22 -100 -30 -142 -32 -158 -48 -234 -61 -288 -8 -30 -19 -81 -25 -113 -18 -91 -28 -97 -169 -97 -66 0 -121 4 -123 8 -4 11 -94 72 -106 72 -6 0 -12 -5 -14 -11 -3 -9 -74 -13 -243 -14 l-239 -2 -36 -42 c-34 -39 -38 -41 -91 -41 -31 0 -114 -5 -184 -10 -70 -6 -220 -15 -332 -19 -250 -10 -236 -2 -297 -186 -12 -36 -16 -88 -16 -190 -1 -171 -7 -189 -106 -274 -40 -33 -74 -67 -77 -75 -3 -8 4 -31 16 -52 18 -35 20 -53 18 -163 -1 -69 -4 -128 -7 -133 -3 -4 -36 -8 -73 -8 -142 0 -291 -86 -376 -215 -30 -46 -55 -98 -55 -113 0 -7 -7 -36 -16 -64 -14 -40 -16 -72 -11 -161 8 -134 32 -223 94 -355 34 -71 73 -115 153 -169 36 -24 97 -66 135 -93 73 -51 200 -120 226 -121 8 0 33 -10 56 -22 116 -60 271 -136 298 -145 57 -21 313 -33 825 -38 335 -3 569 -10 670 -20 132 -12 391 -13 1730 -9 866 4 1753 10 1970 14 353 6 399 9 435 26 219 101 286 145 424 282 47 47 95 86 110 89 39 9 239 94 294 126 26 15 52 28 57 28 5 0 27 9 48 20 159 83 292 324 292 531 0 71 -20 240 -36 295 -19 69 -18 91 7 104 15 9 32 8 67 -3 26 -8 70 -22 97 -30 88 -28 134 -32 141 -13 5 12 -1 22 -17 33 -13 9 -60 52 -104 97 -58 59 -91 104 -120 161 -62 122 -31 115 -522 115 l-411 0 -52 47 c-77 70 -157 130 -231 174 -37 22 -73 48 -82 57 -20 23 -47 120 -48 174 0 23 -8 74 -17 112 l-17 69 -55 19 c-35 13 -81 20 -125 19 -132 0 -479 45 -588 77 -51 15 -61 22 -84 61 -14 25 -37 55 -51 68 l-24 23 26 10 c15 5 34 10 41 10 40 0 115 23 115 35 0 8 10 25 23 40 l22 25 270 10 c149 5 288 12 310 15 22 3 153 10 290 15 138 5 329 13 425 19 520 30 666 36 885 35 256 -1 365 -12 394 -38 22 -20 83 -21 142 -2 24 8 65 17 91 21 38 5 53 14 82 46 43 47 47 91 16 161 -31 70 -34 71 -167 63 -103 -6 -124 -11 -168 -35 -48 -26 -61 -28 -255 -39 -113 -6 -506 -16 -875 -21 -368 -5 -851 -13 -1073 -16 l-403 -7 -27 25 c-48 44 -103 56 -292 63 -179 7 -230 19 -230 51 0 19 -144 162 -176 174 -14 6 -39 10 -56 10 -30 0 -122 14 -293 45 -44 9 -94 15 -111 15 -21 0 -41 10 -62 30 -35 33 -84 40 -111 16 -14 -13 -25 -13 -81 -1 -36 8 -103 21 -150 30 -47 9 -107 21 -135 27 -27 7 -90 12 -140 12 l-89 1 -8 35 c-5 19 -13 63 -18 98 -21 132 -35 138 -340 144 -129 2 -317 3 -418 1z m5456 -802 c-3 -31 -7 -36 -30 -39 -26 -3 -28 -1 -28 32 0 22 6 38 17 44 29 17 44 3 41 -37z m132 34 c27 -32 -25 -111 -60 -90 -11 7 -14 88 -3 98 12 12 50 7 63 -8z m-3081 -325 c26 -14 -20 -19 -104 -11 l-80 7 50 8 c28 4 57 9 65 10 17 4 48 -3 69 -14z"/> </g> </svg> 