 <svg  version="1.0" xmlns="http://www.w3.org/2000/svg"  width="900.000000pt" height="1260.000000pt" viewBox="0 0 900.000000 1260.000000"  preserveAspectRatio="xMidYMid meet">  <g transform="translate(0.000000,1260.000000) scale(0.100000,-0.100000)" fill="#ffffff" stroke="none"> <path d="M4215 12294 c-56 -6 -174 -34 -213 -50 -18 -8 -39 -14 -47 -14 -7 0 -26 -6 -42 -14 -15 -8 -77 -38 -136 -68 -60 -29 -116 -58 -125 -63 -105 -64 -244 -167 -315 -235 -27 -25 -52 -46 -57 -48 -8 -3 -146 -154 -195 -213 -65 -79 -215 -305 -215 -324 0 -8 -4 -16 -9 -19 -5 -4 -19 -27 -31 -54 -12 -26 -27 -57 -32 -69 -14 -28 1 -66 60 -156 70 -105 151 -174 255 -215 31 -13 34 -36 12 -97 -29 -82 -7 -218 46 -287 25 -32 29 -45 29 -103 0 -38 6 -78 15 -94 20 -40 6 -116 -33 -177 -183 -287 -325 -569 -417 -824 -28 -78 -37 -106 -45 -135 -5 -16 -13 -43 -18 -60 -51 -150 -110 -401 -148 -625 -8 -52 -22 -121 -30 -152 -8 -32 -14 -70 -14 -86 0 -84 -79 -219 -215 -367 -20 -22 -60 -67 -88 -100 -29 -33 -115 -125 -192 -205 -240 -247 -269 -280 -390 -440 -75 -100 -158 -225 -216 -325 -19 -33 -39 -69 -46 -80 -15 -27 -171 -342 -189 -383 -67 -153 -92 -215 -143 -362 -7 -19 -16 -48 -21 -65 -4 -16 -12 -41 -17 -55 -28 -69 -91 -312 -117 -445 -38 -202 -48 -318 -44 -500 6 -201 25 -355 45 -355 7 0 13 4 13 9 0 16 68 53 91 49 15 -2 29 -22 50 -73 115 -270 283 -579 351 -641 51 -47 153 -122 292 -214 13 -8 74 -46 137 -83 63 -37 121 -72 129 -77 19 -11 274 -136 318 -156 72 -32 99 -43 137 -57 22 -8 59 -22 83 -31 44 -17 94 -35 152 -56 19 -6 51 -16 70 -20 19 -4 49 -12 65 -18 78 -26 227 -59 397 -87 53 -10 102 -23 107 -29 13 -16 -4 -219 -25 -292 -8 -28 -14 -58 -14 -67 0 -9 -7 -33 -16 -54 -39 -92 -47 -109 -55 -123 -4 -8 -17 -35 -29 -60 -12 -25 -28 -58 -35 -73 -8 -16 -15 -35 -15 -43 0 -31 -32 -74 -73 -98 -23 -14 -47 -34 -53 -44 -7 -10 -15 -89 -19 -183 -3 -90 -12 -198 -20 -239 -7 -41 -16 -183 -20 -315 -11 -463 -22 -657 -39 -704 -9 -24 -16 -53 -16 -64 0 -11 -6 -43 -14 -71 -52 -183 -50 -168 -32 -246 9 -40 16 -88 16 -107 0 -18 7 -63 16 -98 l16 -65 252 0 251 0 18 48 c43 109 67 181 77 222 5 19 18 66 29 105 11 38 22 118 26 180 12 220 56 453 139 746 9 31 16 66 16 78 0 12 4 30 10 40 5 10 14 45 19 77 6 32 20 91 32 129 11 39 24 93 29 121 4 28 13 61 19 72 16 29 14 77 -4 92 -20 16 -19 60 1 107 9 21 23 52 30 68 35 83 116 245 124 250 6 4 10 12 10 20 0 8 12 31 26 52 44 65 86 164 95 227 5 34 9 139 9 235 0 174 9 262 36 357 8 28 14 72 14 98 0 59 12 64 104 43 77 -17 175 -38 273 -57 59 -12 64 -11 80 8 16 19 31 21 153 24 l135 3 6 -97 c4 -53 9 -100 13 -106 3 -5 8 -110 11 -233 7 -277 15 -309 114 -444 24 -33 50 -65 56 -70 14 -11 69 -112 78 -141 3 -10 15 -44 27 -74 12 -30 26 -71 31 -90 4 -19 16 -63 25 -97 l17 -62 -32 -31 c-49 -49 -52 -62 -32 -106 70 -152 90 -266 126 -744 19 -248 42 -521 55 -650 16 -154 8 -257 -26 -338 -28 -66 -44 -62 286 -62 330 0 314 -4 286 62 -50 117 -59 283 -31 568 8 80 15 181 15 225 0 43 7 122 15 175 19 129 45 594 45 816 l0 180 -35 41 c-38 45 -55 81 -55 118 0 32 -48 143 -90 210 -76 120 -120 316 -120 534 0 77 3 146 6 155 3 9 24 17 52 21 26 4 67 12 92 20 25 7 72 21 105 30 134 39 169 50 278 91 23 9 60 23 82 31 109 41 374 167 465 221 19 11 53 30 75 42 22 12 58 34 80 49 22 15 47 30 55 34 37 18 223 146 295 204 74 60 167 202 272 415 25 52 44 78 55 78 41 0 148 -132 206 -254 40 -82 45 -53 39 231 -5 247 -14 389 -39 573 -6 47 -14 112 -18 145 -10 87 -52 306 -76 391 -8 28 -14 59 -14 69 0 9 -7 38 -14 64 -8 25 -23 73 -32 106 -9 33 -22 76 -29 95 -7 19 -20 60 -29 90 -30 96 -121 319 -164 400 -56 107 -67 126 -81 143 -8 9 -11 20 -7 25 4 4 14 -2 22 -13 8 -11 25 -31 38 -45 95 -102 268 -408 370 -652 8 -18 21 -50 30 -71 9 -21 16 -46 16 -55 0 -10 4 -22 8 -28 9 -9 38 -97 68 -204 9 -30 22 -75 30 -100 8 -25 14 -54 14 -64 0 -11 6 -42 14 -70 8 -28 22 -87 31 -131 38 -190 49 -233 71 -280 24 -55 58 -152 69 -199 33 -150 44 483 11 672 -16 91 -28 141 -64 272 -20 75 -50 167 -61 188 -5 9 -17 37 -26 62 -9 25 -23 57 -31 72 -16 31 -18 68 -4 68 6 0 13 -8 16 -17 3 -10 9 -25 14 -33 14 -24 141 -281 156 -317 8 -18 21 -47 29 -65 7 -18 21 -49 29 -70 9 -20 16 -42 16 -50 0 -7 7 -22 15 -32 8 -11 15 -30 15 -42 0 -13 6 -29 14 -37 8 -8 16 -31 18 -52 2 -21 9 -40 16 -43 17 -5 16 49 -3 74 -8 10 -15 35 -15 54 0 19 -6 52 -14 75 -7 22 -21 65 -30 95 -23 81 -52 168 -76 230 -12 30 -25 66 -30 80 -25 76 -160 355 -211 435 -10 17 -23 39 -29 50 -17 32 -32 55 -85 133 -28 41 -54 81 -60 90 -12 19 -122 168 -146 197 -9 11 -52 63 -95 115 -104 126 -280 302 -379 376 -44 34 -85 63 -91 65 -24 9 -391 280 -459 339 -55 48 -298 291 -330 330 -11 14 -34 43 -50 65 -16 22 -32 42 -36 45 -3 3 -23 31 -45 63 -57 85 -72 110 -84 132 -6 11 -19 34 -29 50 -37 58 -126 228 -167 320 -7 17 -27 60 -43 98 -17 37 -31 73 -31 80 0 7 -5 18 -11 24 -6 6 -14 26 -19 44 -8 34 -50 156 -72 214 -8 19 -14 135 -18 310 -7 270 -19 439 -41 555 -6 30 -13 82 -16 115 -2 33 -11 74 -19 92 -8 17 -14 49 -14 70 0 21 -5 44 -12 51 -14 14 4 62 24 62 12 0 20 -15 64 -115 51 -116 71 -160 108 -235 49 -97 89 -172 117 -215 10 -16 22 -37 26 -45 4 -8 27 -44 51 -80 192 -281 433 -519 692 -686 47 -30 52 -33 135 -78 28 -15 70 -38 94 -52 24 -13 50 -24 56 -24 7 0 18 -7 25 -15 7 -8 21 -15 32 -15 10 0 30 -7 44 -16 17 -12 28 -14 35 -7 7 7 2 14 -18 22 -29 12 -40 18 -110 64 -24 15 -45 27 -48 27 -3 0 -18 8 -33 19 -15 10 -73 48 -128 85 -193 126 -337 249 -504 432 -65 71 -230 293 -230 309 0 2 -13 23 -29 47 -16 24 -39 61 -50 83 -23 42 -34 63 -51 93 -5 9 -19 37 -30 62 -12 25 -26 53 -31 62 -5 10 -9 21 -9 25 0 8 11 -3 110 -117 180 -204 496 -490 542 -490 10 0 28 5 41 12 12 6 29 14 37 18 8 5 14 16 13 27 -3 26 -242 383 -381 568 -196 260 -350 409 -476 461 -52 22 -55 33 -30 107 16 46 16 167 0 212 -6 17 3 25 61 55 79 40 135 79 181 129 65 70 90 169 58 229 -8 15 -29 58 -47 97 -19 38 -53 98 -76 133 -24 35 -43 66 -43 69 0 5 -57 81 -70 93 -3 3 -29 34 -59 70 -153 185 -396 388 -606 506 -27 16 -153 78 -190 94 -16 7 -73 28 -125 47 -88 31 -106 34 -240 37 -80 2 -163 2 -185 0z m1461 -2041 c42 -43 103 -108 135 -145 74 -86 269 -344 269 -357 0 -5 3 -11 8 -13 10 -4 112 -157 112 -168 0 -6 -7 -10 -15 -10 -8 0 -15 4 -15 8 0 5 -19 23 -43 40 -85 60 -253 234 -406 417 -55 67 -149 194 -157 214 -12 28 4 91 23 91 6 0 46 -35 89 -77z m-186 -418 c7 -33 16 -109 21 -170 5 -60 12 -148 16 -195 10 -104 2 -271 -11 -225 -4 17 -14 47 -22 68 -8 20 -14 54 -14 75 -1 20 -7 66 -15 102 -15 68 -21 392 -8 426 6 16 7 16 14 -2 3 -10 12 -46 19 -79z m-2280 -2 c12 -16 19 -36 17 -48 -2 -11 -10 -42 -17 -70 -6 -27 -19 -77 -27 -110 -24 -101 -69 -261 -88 -315 -7 -19 -18 -51 -24 -70 -7 -19 -16 -48 -21 -65 -5 -16 -18 -55 -30 -85 -12 -30 -24 -64 -27 -75 -3 -11 -11 -33 -18 -50 -7 -16 -21 -50 -30 -75 -10 -25 -24 -61 -33 -80 -8 -19 -21 -48 -28 -65 -40 -95 -158 -340 -196 -405 -21 -36 -63 -112 -87 -156 -9 -19 -16 -23 -24 -15 -8 8 -6 31 7 83 59 248 110 439 151 573 7 22 21 67 30 100 10 33 22 71 28 85 5 14 13 39 17 55 5 17 18 55 30 85 12 30 26 69 30 85 11 39 38 111 49 133 5 9 19 42 31 72 68 170 185 410 207 428 24 17 29 16 53 -15z m-1608 -3308 c-11 -21 -25 -4 -16 20 4 10 10 13 16 7 7 -7 7 -16 0 -27z m-22 -54 c0 -11 -7 -26 -15 -35 -8 -8 -15 -25 -15 -38 0 -13 -7 -33 -15 -44 -8 -10 -15 -29 -15 -41 0 -12 -6 -37 -14 -55 -13 -32 -24 -66 -61 -193 -22 -75 -48 -135 -58 -135 -4 0 -13 -12 -19 -27 -10 -25 -12 -25 -15 -8 -2 11 17 81 41 155 64 191 76 224 87 235 5 5 9 19 9 31 0 12 7 27 15 34 8 7 15 23 15 35 0 12 7 28 15 35 8 7 15 22 15 35 0 12 3 25 7 28 12 13 23 7 23 -12z m6300 -627 c0 -16 -16 -19 -25 -4 -8 13 4 32 16 25 5 -4 9 -13 9 -21z"/> <path d="M5636 9641 c-4 -6 -3 -18 2 -27 6 -11 11 -13 16 -5 4 6 3 18 -2 27 -6 11 -11 13 -16 5z"/> <path d="M5660 9557 c0 -23 11 -47 22 -47 14 0 5 53 -9 58 -7 2 -13 -3 -13 -11z"/> <path d="M5690 9471 c0 -19 6 -34 15 -37 8 -4 15 -18 15 -34 0 -15 7 -33 15 -40 8 -7 15 -19 15 -27 0 -13 15 -48 41 -93 5 -8 12 -22 15 -30 3 -8 10 -22 15 -30 5 -8 12 -22 15 -30 3 -8 9 -22 14 -30 5 -8 19 -33 31 -55 11 -22 34 -59 50 -83 16 -24 29 -45 29 -48 0 -3 20 -32 45 -64 25 -32 45 -61 45 -64 0 -3 8 -14 18 -24 9 -10 34 -38 54 -62 55 -64 58 -41 4 29 -25 33 -46 64 -46 71 0 6 -7 13 -15 16 -8 4 -15 11 -15 16 0 6 -12 27 -27 47 -31 40 -48 67 -63 96 -6 11 -19 34 -30 50 -11 17 -24 40 -29 52 -5 11 -15 24 -20 28 -6 3 -11 14 -11 24 0 10 -7 24 -15 31 -8 7 -15 19 -15 27 0 8 -7 21 -15 29 -8 9 -15 24 -15 35 0 11 -7 22 -15 25 -8 4 -15 16 -15 29 0 12 -7 28 -15 35 -8 7 -15 23 -15 36 0 13 -6 27 -14 31 -8 4 -16 21 -18 37 -4 41 -28 46 -28 7z"/> <path d="M8253 4985 c0 -22 2 -30 4 -17 2 12 2 30 0 40 -3 9 -5 -1 -4 -23z"/> </g> </svg> 